<svg width="177" height="33" viewBox="0 0 177 33" fill="none" xmlns="http://www.w3.org/2000/svg">
<mask id="mask0_131_3081" style="mask-type:alpha" maskUnits="userSpaceOnUse" x="0" y="3" width="30" height="30">
<rect y="3" width="30" height="30" rx="15" fill="#D9D9D9"/>
</mask>
<g mask="url(#mask0_131_3081)">
<path d="M-0.309297 27C-0.309297 27 2.57254 18.7199 16.1907 22.5757C29.8089 26.4315 32.6907 18.1514 32.6907 18.1514" stroke="#F25C05" stroke-width="5"/>
<path d="M0.690703 31.4243C0.690703 31.4243 3.57254 23.1443 17.1907 27C30.8089 30.8558 33.6907 22.5757 33.6907 22.5757" stroke="#F10505" stroke-width="5"/>
<path d="M0.690703 35.8487C0.690703 35.8487 3.57254 27.5686 17.1907 31.4243C30.8089 35.2801 33.6907 27 33.6907 27" stroke="#A60402" stroke-width="5"/>
<circle cx="15" cy="11" r="4" fill="#FFF387"/>
<circle cx="15" cy="11" r="4" fill="#D91438"/>
</g>
<circle cx="15" cy="2" r="2" fill="#D91438"/>
<path d="M51.44 25.14C49.8 25.14 48.4533 24.7533 47.4 23.98C46.3467 23.1933 45.78 22.0733 45.7 20.62H49.88C49.92 21.1133 50.0667 21.4733 50.32 21.7C50.5733 21.9267 50.9 22.04 51.3 22.04C51.66 22.04 51.9533 21.9533 52.18 21.78C52.42 21.5933 52.54 21.34 52.54 21.02C52.54 20.6067 52.3467 20.2867 51.96 20.06C51.5733 19.8333 50.9467 19.58 50.08 19.3C49.16 18.9933 48.4133 18.7 47.84 18.42C47.28 18.1267 46.7867 17.7067 46.36 17.16C45.9467 16.6 45.74 15.8733 45.74 14.98C45.74 14.0733 45.9667 13.3 46.42 12.66C46.8733 12.0067 47.5 11.5133 48.3 11.18C49.1 10.8467 50.0067 10.68 51.02 10.68C52.66 10.68 53.9667 11.0667 54.94 11.84C55.9267 12.6 56.4533 13.6733 56.52 15.06H52.26C52.2467 14.6333 52.1133 14.3133 51.86 14.1C51.62 13.8867 51.3067 13.78 50.92 13.78C50.6267 13.78 50.3867 13.8667 50.2 14.04C50.0133 14.2133 49.92 14.46 49.92 14.78C49.92 15.0467 50.02 15.28 50.22 15.48C50.4333 15.6667 50.6933 15.8333 51 15.98C51.3067 16.1133 51.76 16.2867 52.36 16.5C53.2533 16.8067 53.9867 17.1133 54.56 17.42C55.1467 17.7133 55.6467 18.1333 56.06 18.68C56.4867 19.2133 56.7 19.8933 56.7 20.72C56.7 21.56 56.4867 22.3133 56.06 22.98C55.6467 23.6467 55.04 24.1733 54.24 24.56C53.4533 24.9467 52.52 25.14 51.44 25.14ZM65.9023 13.68C67.1823 13.68 68.1957 14.1133 68.9423 14.98C69.7023 15.8333 70.0823 16.9933 70.0823 18.46V25H66.1623V18.98C66.1623 18.34 65.9957 17.84 65.6623 17.48C65.329 17.1067 64.8823 16.92 64.3223 16.92C63.7357 16.92 63.2757 17.1067 62.9423 17.48C62.609 17.84 62.4423 18.34 62.4423 18.98V25H58.5223V10.2H62.4423V15.38C62.789 14.8733 63.2557 14.4667 63.8423 14.16C64.4423 13.84 65.129 13.68 65.9023 13.68ZM74.2133 12.74C73.5199 12.74 72.9599 12.5533 72.5333 12.18C72.1199 11.7933 71.9133 11.3133 71.9133 10.74C71.9133 10.1533 72.1199 9.66667 72.5333 9.28C72.9599 8.89333 73.5199 8.7 74.2133 8.7C74.8933 8.7 75.4399 8.89333 75.8533 9.28C76.2799 9.66667 76.4933 10.1533 76.4933 10.74C76.4933 11.3133 76.2799 11.7933 75.8533 12.18C75.4399 12.5533 74.8933 12.74 74.2133 12.74ZM76.1533 13.78V25H72.2333V13.78H76.1533ZM82.5256 13.64C83.2856 13.64 83.9456 13.7933 84.5056 14.1C85.079 14.4067 85.519 14.82 85.8256 15.34V13.78H89.7456V24.88C89.7456 25.9333 89.5456 26.88 89.1456 27.72C88.7456 28.5733 88.119 29.2533 87.2656 29.76C86.4256 30.2667 85.359 30.52 84.0656 30.52C82.3323 30.52 80.9456 30.1133 79.9056 29.3C78.8656 28.4867 78.2723 27.38 78.1256 25.98H81.9856C82.0656 26.34 82.2656 26.62 82.5856 26.82C82.9056 27.02 83.319 27.12 83.8256 27.12C85.159 27.12 85.8256 26.3733 85.8256 24.88V23.44C85.519 23.96 85.079 24.3733 84.5056 24.68C83.9456 24.9867 83.2856 25.14 82.5256 25.14C81.6323 25.14 80.819 24.9067 80.0856 24.44C79.3656 23.9733 78.7923 23.3067 78.3656 22.44C77.9523 21.56 77.7456 20.54 77.7456 19.38C77.7456 18.22 77.9523 17.2067 78.3656 16.34C78.7923 15.4733 79.3656 14.8067 80.0856 14.34C80.819 13.8733 81.6323 13.64 82.5256 13.64ZM85.8256 19.38C85.8256 18.66 85.6256 18.0933 85.2256 17.68C84.839 17.2667 84.359 17.06 83.7856 17.06C83.199 17.06 82.7123 17.2667 82.3256 17.68C81.939 18.08 81.7456 18.6467 81.7456 19.38C81.7456 20.1 81.939 20.6733 82.3256 21.1C82.7123 21.5133 83.199 21.72 83.7856 21.72C84.359 21.72 84.839 21.5133 85.2256 21.1C85.6256 20.6867 85.8256 20.1133 85.8256 19.38ZM91.3394 19.38C91.3394 18.22 91.546 17.2067 91.9594 16.34C92.386 15.4733 92.9594 14.8067 93.6794 14.34C94.4127 13.8733 95.226 13.64 96.1194 13.64C96.8927 13.64 97.5594 13.7933 98.1194 14.1C98.6794 14.4067 99.1127 14.82 99.4194 15.34V13.78H103.339V25H99.4194V23.44C99.1127 23.96 98.6727 24.3733 98.0994 24.68C97.5394 24.9867 96.8794 25.14 96.1194 25.14C95.226 25.14 94.4127 24.9067 93.6794 24.44C92.9594 23.9733 92.386 23.3067 91.9594 22.44C91.546 21.56 91.3394 20.54 91.3394 19.38ZM99.4194 19.38C99.4194 18.66 99.2194 18.0933 98.8194 17.68C98.4327 17.2667 97.9527 17.06 97.3794 17.06C96.7927 17.06 96.306 17.2667 95.9194 17.68C95.5327 18.08 95.3394 18.6467 95.3394 19.38C95.3394 20.1 95.5327 20.6733 95.9194 21.1C96.306 21.5133 96.7927 21.72 97.3794 21.72C97.9527 21.72 98.4327 21.5133 98.8194 21.1C99.2194 20.6867 99.4194 20.1133 99.4194 19.38ZM112.913 13.68C114.206 13.68 115.233 14.1133 115.993 14.98C116.753 15.8333 117.133 16.9933 117.133 18.46V25H113.213V18.98C113.213 18.34 113.046 17.84 112.713 17.48C112.38 17.1067 111.933 16.92 111.373 16.92C110.786 16.92 110.326 17.1067 109.993 17.48C109.66 17.84 109.493 18.34 109.493 18.98V25H105.573V13.78H109.493V15.38C109.84 14.8733 110.306 14.4667 110.893 14.16C111.48 13.84 112.153 13.68 112.913 13.68ZM124.064 25.14C123.051 25.14 122.144 24.9733 121.344 24.64C120.557 24.2933 119.931 23.8267 119.464 23.24C119.011 22.64 118.757 21.9667 118.704 21.22H122.504C122.557 21.58 122.724 21.86 123.004 22.06C123.284 22.26 123.631 22.36 124.044 22.36C124.364 22.36 124.617 22.2933 124.804 22.16C124.991 22.0267 125.084 21.8533 125.084 21.64C125.084 21.36 124.931 21.1533 124.624 21.02C124.317 20.8867 123.811 20.74 123.104 20.58C122.304 20.42 121.637 20.24 121.104 20.04C120.571 19.84 120.104 19.5133 119.704 19.06C119.317 18.6067 119.124 17.9933 119.124 17.22C119.124 16.5533 119.304 15.9533 119.664 15.42C120.024 14.8733 120.551 14.44 121.244 14.12C121.951 13.8 122.797 13.64 123.784 13.64C125.251 13.64 126.404 14 127.244 14.72C128.084 15.44 128.571 16.3867 128.704 17.56H125.164C125.097 17.2 124.937 16.9267 124.684 16.74C124.444 16.54 124.117 16.44 123.704 16.44C123.384 16.44 123.137 16.5 122.964 16.62C122.804 16.74 122.724 16.9067 122.724 17.12C122.724 17.3867 122.877 17.5933 123.184 17.74C123.491 17.8733 123.984 18.0133 124.664 18.16C125.477 18.3333 126.151 18.5267 126.684 18.74C127.231 18.9533 127.704 19.3 128.104 19.78C128.517 20.2467 128.724 20.8867 128.724 21.7C128.724 22.3533 128.531 22.94 128.144 23.46C127.771 23.98 127.231 24.3933 126.524 24.7C125.831 24.9933 125.011 25.14 124.064 25.14ZM138.031 13.68C139.311 13.68 140.325 14.1133 141.071 14.98C141.831 15.8333 142.211 16.9933 142.211 18.46V25H138.291V18.98C138.291 18.34 138.125 17.84 137.791 17.48C137.458 17.1067 137.011 16.92 136.451 16.92C135.865 16.92 135.405 17.1067 135.071 17.48C134.738 17.84 134.571 18.34 134.571 18.98V25H130.651V10.2H134.571V15.38C134.918 14.8733 135.385 14.4667 135.971 14.16C136.571 13.84 137.258 13.68 138.031 13.68ZM146.342 12.74C145.649 12.74 145.089 12.5533 144.662 12.18C144.249 11.7933 144.042 11.3133 144.042 10.74C144.042 10.1533 144.249 9.66667 144.662 9.28C145.089 8.89333 145.649 8.7 146.342 8.7C147.022 8.7 147.569 8.89333 147.982 9.28C148.409 9.66667 148.622 10.1533 148.622 10.74C148.622 11.3133 148.409 11.7933 147.982 12.18C147.569 12.5533 147.022 12.74 146.342 12.74ZM148.282 13.78V25H144.362V13.78H148.282ZM157.855 13.68C159.148 13.68 160.175 14.1133 160.935 14.98C161.695 15.8333 162.075 16.9933 162.075 18.46V25H158.155V18.98C158.155 18.34 157.988 17.84 157.655 17.48C157.321 17.1067 156.875 16.92 156.315 16.92C155.728 16.92 155.268 17.1067 154.935 17.48C154.601 17.84 154.435 18.34 154.435 18.98V25H150.515V13.78H154.435V15.38C154.781 14.8733 155.248 14.4667 155.835 14.16C156.421 13.84 157.095 13.68 157.855 13.68ZM163.585 19.38C163.585 18.22 163.792 17.2067 164.205 16.34C164.632 15.4733 165.205 14.8067 165.925 14.34C166.659 13.8733 167.472 13.64 168.365 13.64C169.139 13.64 169.805 13.7933 170.365 14.1C170.925 14.4067 171.359 14.82 171.665 15.34V13.78H175.585V25H171.665V23.44C171.359 23.96 170.919 24.3733 170.345 24.68C169.785 24.9867 169.125 25.14 168.365 25.14C167.472 25.14 166.659 24.9067 165.925 24.44C165.205 23.9733 164.632 23.3067 164.205 22.44C163.792 21.56 163.585 20.54 163.585 19.38ZM171.665 19.38C171.665 18.66 171.465 18.0933 171.065 17.68C170.679 17.2667 170.199 17.06 169.625 17.06C169.039 17.06 168.552 17.2667 168.165 17.68C167.779 18.08 167.585 18.6467 167.585 19.38C167.585 20.1 167.779 20.6733 168.165 21.1C168.552 21.5133 169.039 21.72 169.625 21.72C170.199 21.72 170.679 21.5133 171.065 21.1C171.465 20.6867 171.665 20.1133 171.665 19.38Z" fill="white"/>
</svg>
