<svg width="408" height="241" viewBox="0 0 408 241" fill="none" xmlns="http://www.w3.org/2000/svg">
<path d="M71.38 28L70.92 25.04H66.68V14.2H63.26V28H71.38ZM81.3355 23.1C81.3355 19.96 79.3355 18 76.6155 18C73.9155 18 71.9155 19.98 71.9155 23.12C71.9155 26.26 73.8955 28.2 76.5955 28.2C79.3155 28.2 81.3355 26.24 81.3355 23.1ZM78.4155 23.12C78.4155 24.7 77.7755 25.76 76.6155 25.76C75.4755 25.76 74.8355 24.68 74.8355 23.1C74.8355 21.5 75.4555 20.48 76.6155 20.48C77.7755 20.48 78.4155 21.54 78.4155 23.12ZM91.0823 28V21.44C91.0823 18.94 89.7423 18.04 87.0423 18.04C85.4423 18.04 84.1823 18.34 83.0623 18.8L83.4223 21.08C84.4623 20.62 85.4823 20.34 86.5823 20.34C87.5823 20.34 88.0623 20.72 88.0623 21.58V21.76C84.2223 22.1 82.4623 23.18 82.4623 25.48C82.4623 27.26 83.5623 28.2 85.1223 28.2C86.4623 28.2 87.4023 27.62 88.2023 26.78L88.4023 28H91.0823ZM88.0623 25.3C87.5223 25.78 86.9623 26.04 86.3823 26.04C85.8223 26.04 85.4423 25.7 85.4423 25.08C85.4423 24.22 86.0023 23.54 88.0623 23.22V25.3ZM101.879 28V13.56L98.8591 14.04V18.46C98.2991 18.26 97.6791 18.14 96.7791 18.14C94.6191 18.14 92.6391 19.64 92.6391 23.38C92.6391 26.68 94.1791 28.2 96.1791 28.2C97.4391 28.2 98.3391 27.46 98.9991 26.72L99.1991 28H101.879ZM98.8591 24.52C98.3391 25.1 97.8191 25.52 97.1791 25.52C96.3191 25.52 95.6791 24.84 95.6791 23.16C95.6791 21.28 96.4391 20.5 97.4391 20.5C98.0791 20.5 98.4191 20.58 98.8591 20.78V24.52ZM107.258 15.3C107.258 14.3 106.518 13.66 105.538 13.66C104.578 13.66 103.818 14.3 103.818 15.3C103.818 16.28 104.578 16.92 105.538 16.92C106.518 16.92 107.258 16.28 107.258 15.3ZM107.058 28V18.2H104.018V28H107.058ZM117.912 28V21.04C117.912 19.14 116.952 18 115.132 18C113.892 18 112.952 18.68 112.072 19.54L111.852 18.2H109.192V28H112.212V21.56C112.752 21.02 113.292 20.68 113.872 20.68C114.592 20.68 114.872 21.16 114.872 21.86V28H117.912ZM121.995 27.82C122.475 27.9 122.815 27.96 123.535 28.02L124.995 28.14C126.055 28.26 126.415 28.46 126.415 28.92C126.415 29.56 125.515 30.08 123.935 30.08C122.175 30.08 121.415 29.6 121.415 28.92C121.415 28.58 121.595 28.22 121.995 27.82ZM125.195 21.42C125.195 22.36 124.675 23.04 123.755 23.04C122.875 23.04 122.355 22.4 122.355 21.48C122.355 20.54 122.875 19.82 123.755 19.82C124.655 19.82 125.195 20.5 125.195 21.42ZM126.735 18.98C125.995 18.4 124.975 18.04 123.735 18.04C121.375 18.04 119.615 19.38 119.615 21.52C119.615 22.78 120.275 23.8 121.495 24.36C120.535 24.9 120.035 25.5 120.035 26.12C120.035 26.5 120.235 26.9 120.575 27.2C119.495 27.8 118.975 28.44 118.975 29.3C118.975 30.8 120.935 31.64 123.695 31.64C126.835 31.64 129.175 30.26 129.175 28.12C129.175 26.64 127.995 26.02 126.035 25.82L124.235 25.7C122.915 25.54 122.675 25.46 122.675 25.18C122.675 25.04 122.755 24.9 122.915 24.74C123.215 24.78 123.515 24.8 123.835 24.8C126.055 24.8 127.895 23.54 127.895 21.42C127.895 21.06 127.835 20.72 127.715 20.38C127.735 20.38 129.435 20.34 129.435 20.34L129.055 18.1L126.735 18.98Z" fill="white"/>
<rect x="140" y="19.5" width="2" height="2" rx="1" fill="#D9D9D9"/>
<path d="M159.896 23.358V22.322H158.384V16.008H156.886L152.49 22.434V23.358H157.222V25.5H158.384V23.358H159.896ZM157.222 22.322H153.834L157.222 17.422V22.322ZM167.454 15.952L166.334 15.714L159.726 27.04L160.846 27.278L167.454 15.952ZM171.953 20.096C170.441 19.466 169.853 19.13 169.853 18.276C169.853 17.52 170.441 16.918 171.617 16.918C172.751 16.918 173.381 17.436 173.381 18.248C173.381 18.976 172.807 19.634 171.953 20.096ZM171.281 20.978C173.073 21.706 173.689 22.07 173.689 23.064C173.689 24.016 172.849 24.618 171.617 24.618C170.399 24.618 169.517 24.044 169.517 23.022C169.517 22.168 170.217 21.454 171.281 20.978ZM170.231 20.516C169.083 21.118 168.257 21.958 168.257 23.078C168.257 24.492 169.419 25.682 171.589 25.682C173.661 25.682 174.949 24.562 174.949 23.106C174.949 21.748 174.207 21.118 172.961 20.53C173.871 20.012 174.613 19.284 174.613 18.22C174.613 16.876 173.479 15.854 171.645 15.854C169.825 15.854 168.621 16.89 168.621 18.29C168.621 19.438 169.265 20.04 170.231 20.516Z" fill="#ABABAB"/>
<rect x="186" y="19.5" width="2" height="2" rx="1" fill="#D9D9D9"/>
<path d="M201.668 25.5V16.008H200.576L198.308 17.058L198.448 18.066L200.422 17.324V25.5H201.668ZM210.956 20.768C210.956 17.632 209.5 15.854 207.344 15.854C205.174 15.854 203.718 17.632 203.718 20.768C203.718 23.904 205.174 25.682 207.344 25.682C209.5 25.682 210.956 23.904 210.956 20.768ZM209.668 20.768C209.668 23.232 208.8 24.576 207.344 24.576C205.888 24.576 205.006 23.232 205.006 20.768C205.006 18.304 205.888 16.96 207.344 16.96C208.8 16.96 209.668 18.304 209.668 20.768ZM220.39 23.638C220.39 22.364 219.648 21.888 217.996 21.468C216.946 21.202 216.61 20.95 216.61 20.502C216.61 20.026 217.002 19.732 217.758 19.732C218.458 19.732 219.2 19.97 219.788 20.306L219.984 19.13C219.354 18.85 218.612 18.682 217.786 18.682C216.33 18.682 215.434 19.466 215.434 20.53C215.434 21.72 216.064 22.196 217.632 22.588C218.836 22.882 219.214 23.106 219.214 23.722C219.214 24.282 218.71 24.604 217.856 24.604C216.946 24.604 216.134 24.268 215.504 23.834L215.322 25.01C215.896 25.332 216.876 25.64 217.758 25.64C219.48 25.64 220.39 24.856 220.39 23.638ZM227.325 22.028C227.325 20.18 226.429 18.682 224.483 18.682C222.803 18.682 221.543 19.998 221.543 22.14C221.543 24.59 222.901 25.64 224.637 25.64C225.743 25.64 226.597 25.304 227.311 24.744L227.129 23.624C226.401 24.198 225.701 24.576 224.735 24.576C223.573 24.576 222.831 23.848 222.789 22.294H227.325C227.325 22.21 227.325 22.098 227.325 22.028ZM226.065 21.356H222.845C223.041 20.208 223.699 19.662 224.469 19.662C225.435 19.662 225.911 20.278 226.065 21.356ZM233.92 24.926L233.738 23.806C233.052 24.394 232.464 24.548 231.792 24.548C230.616 24.548 229.79 23.778 229.79 22.154C229.79 20.6 230.56 19.774 231.652 19.774C232.422 19.774 233.052 20.012 233.668 20.516L233.85 19.298C233.346 18.934 232.646 18.682 231.666 18.682C229.93 18.682 228.53 19.886 228.53 22.168C228.53 24.394 229.846 25.64 231.638 25.64C232.534 25.64 233.234 25.444 233.92 24.926ZM243.95 22.028C243.95 20.18 243.054 18.682 241.108 18.682C239.428 18.682 238.168 19.998 238.168 22.14C238.168 24.59 239.526 25.64 241.262 25.64C242.368 25.64 243.222 25.304 243.936 24.744L243.754 23.624C243.026 24.198 242.326 24.576 241.36 24.576C240.198 24.576 239.456 23.848 239.414 22.294H243.95C243.95 22.21 243.95 22.098 243.95 22.028ZM242.69 21.356H239.47C239.666 20.208 240.324 19.662 241.094 19.662C242.06 19.662 242.536 20.278 242.69 21.356ZM246.877 25.5V15.392L245.631 15.588V25.5H246.877ZM253.991 25.5V20.824C253.991 19.34 253.207 18.682 251.583 18.682C250.547 18.682 249.791 18.92 248.993 19.242L249.161 20.32C249.889 19.998 250.659 19.746 251.471 19.746C252.241 19.746 252.745 20.04 252.745 20.88V21.16C249.959 21.454 248.531 22.112 248.531 23.778C248.531 24.912 249.287 25.64 250.491 25.64C251.583 25.64 252.311 25.15 252.843 24.604L252.983 25.5H253.991ZM252.745 23.666C252.185 24.24 251.485 24.604 250.757 24.604C250.127 24.604 249.763 24.254 249.763 23.708C249.763 23.022 250.281 22.35 252.745 22.112V23.666ZM261.873 21.972C261.873 19.746 260.683 18.682 259.241 18.682C258.261 18.682 257.575 19.2 257.071 19.788L256.917 18.822H255.923V28.104L257.169 27.922V25.29C257.589 25.458 258.191 25.584 258.849 25.584C260.473 25.584 261.873 24.408 261.873 21.972ZM260.613 22.028C260.613 23.68 259.843 24.534 258.793 24.534C258.079 24.534 257.673 24.422 257.169 24.17V20.964C257.701 20.25 258.289 19.788 259.045 19.788C259.955 19.788 260.613 20.572 260.613 22.028ZM268.119 23.638C268.119 22.364 267.377 21.888 265.725 21.468C264.675 21.202 264.339 20.95 264.339 20.502C264.339 20.026 264.731 19.732 265.487 19.732C266.187 19.732 266.929 19.97 267.517 20.306L267.713 19.13C267.083 18.85 266.341 18.682 265.515 18.682C264.059 18.682 263.163 19.466 263.163 20.53C263.163 21.72 263.793 22.196 265.361 22.588C266.565 22.882 266.943 23.106 266.943 23.722C266.943 24.282 266.439 24.604 265.585 24.604C264.675 24.604 263.863 24.268 263.233 23.834L263.051 25.01C263.625 25.332 264.605 25.64 265.487 25.64C267.209 25.64 268.119 24.856 268.119 23.638ZM275.054 22.028C275.054 20.18 274.158 18.682 272.212 18.682C270.532 18.682 269.272 19.998 269.272 22.14C269.272 24.59 270.63 25.64 272.366 25.64C273.472 25.64 274.326 25.304 275.04 24.744L274.858 23.624C274.13 24.198 273.43 24.576 272.464 24.576C271.302 24.576 270.56 23.848 270.518 22.294H275.054C275.054 22.21 275.054 22.098 275.054 22.028ZM273.794 21.356H270.574C270.77 20.208 271.428 19.662 272.198 19.662C273.164 19.662 273.64 20.278 273.794 21.356ZM282.208 25.5V15.392L280.962 15.588V19.032C280.542 18.864 279.94 18.738 279.282 18.738C277.658 18.738 276.258 19.914 276.258 22.35C276.258 24.59 277.448 25.64 278.89 25.64C279.87 25.64 280.556 25.136 281.06 24.534L281.214 25.5H282.208ZM280.962 23.358C280.43 24.072 279.842 24.534 279.072 24.534C278.176 24.534 277.518 23.764 277.518 22.294C277.518 20.642 278.274 19.788 279.324 19.788C280.038 19.788 280.444 19.9 280.962 20.166V23.358Z" fill="#ABABAB"/>
<path d="M69.024 57L68.816 55.624H64.832V45.96H63.328V57H69.024ZM76.9471 53.192C76.9471 50.68 75.4431 49.208 73.3951 49.208C71.3631 49.208 69.8911 50.68 69.8911 53.192C69.8911 55.704 71.3631 57.16 73.3951 57.16C75.4431 57.16 76.9471 55.704 76.9471 53.192ZM75.5071 53.192C75.5071 54.792 74.8031 55.976 73.3951 55.976C72.0511 55.976 71.3311 54.76 71.3311 53.192C71.3311 51.592 72.0191 50.408 73.3951 50.408C74.7711 50.408 75.5071 51.624 75.5071 53.192ZM84.5366 57V51.656C84.5366 49.96 83.6406 49.208 81.7846 49.208C80.6006 49.208 79.7366 49.48 78.8246 49.848L79.0166 51.08C79.8486 50.712 80.7286 50.424 81.6566 50.424C82.5366 50.424 83.1126 50.76 83.1126 51.72V52.04C79.9286 52.376 78.2966 53.128 78.2966 55.032C78.2966 56.328 79.1606 57.16 80.5366 57.16C81.7846 57.16 82.6166 56.6 83.2246 55.976L83.3846 57H84.5366ZM83.1126 54.904C82.4726 55.56 81.6726 55.976 80.8406 55.976C80.1206 55.976 79.7046 55.576 79.7046 54.952C79.7046 54.168 80.2966 53.4 83.1126 53.128V54.904ZM93.113 57V45.448L91.689 45.672V49.608C91.209 49.416 90.521 49.272 89.769 49.272C87.913 49.272 86.313 50.616 86.313 53.4C86.313 55.96 87.673 57.16 89.321 57.16C90.441 57.16 91.225 56.584 91.801 55.896L91.977 57H93.113ZM91.689 54.552C91.081 55.368 90.409 55.896 89.529 55.896C88.505 55.896 87.753 55.016 87.753 53.336C87.753 51.448 88.617 50.472 89.817 50.472C90.633 50.472 91.097 50.6 91.689 50.904V54.552ZM97.0824 46.936C97.0824 46.44 96.6824 46.024 96.1864 46.024C95.6904 46.024 95.2744 46.44 95.2744 46.936C95.2744 47.432 95.6904 47.832 96.1864 47.832C96.6824 47.832 97.0824 47.432 97.0824 46.936ZM96.8904 57V49.368H95.4664V57H96.8904ZM105.469 57V51.448C105.469 50.072 104.701 49.208 103.261 49.208C102.173 49.208 101.277 49.816 100.557 50.472L100.381 49.368H99.245V57H100.669V51.72C101.357 50.984 102.125 50.488 102.877 50.488C103.709 50.488 104.045 51.016 104.045 51.8V57H105.469ZM109.491 56.408C109.795 56.472 110.019 56.52 110.435 56.6L111.347 56.76C112.435 56.952 112.787 57.272 112.787 57.736C112.787 58.376 111.955 58.888 110.467 58.888C108.979 58.888 108.195 58.44 108.195 57.832C108.195 57.304 108.595 56.856 109.491 56.408ZM111.859 51.848C111.859 52.76 111.251 53.48 110.275 53.48C109.331 53.48 108.723 52.792 108.723 51.912C108.723 50.984 109.315 50.248 110.275 50.248C111.219 50.248 111.859 50.936 111.859 51.848ZM112.243 49.848C111.715 49.432 111.043 49.208 110.275 49.208C108.723 49.208 107.347 50.216 107.347 51.864C107.347 52.904 107.923 53.72 108.771 54.136C108.259 54.44 107.971 54.808 107.971 55.176C107.971 55.464 108.115 55.736 108.451 55.976C107.379 56.552 106.835 57.16 106.835 57.944C106.835 59.288 108.419 59.912 110.403 59.912C112.387 59.912 114.131 59.16 114.131 57.56C114.131 56.376 113.123 55.864 111.507 55.576L110.963 55.48C109.619 55.24 109.347 55.176 109.347 54.904C109.347 54.76 109.507 54.584 109.731 54.44C109.923 54.472 110.115 54.488 110.307 54.488C111.859 54.488 113.235 53.496 113.235 51.864C113.235 51.432 113.139 51.032 112.931 50.68L114.387 50.536L114.179 49.256L112.243 49.848ZM129.245 49.368H127.853L126.221 54.904L124.525 49.368H123.325L121.629 54.904L119.949 49.256L118.589 49.48L121.053 57H122.157L123.901 51.224L125.661 57H126.781L129.245 49.368ZM136.734 53.032C136.734 50.92 135.71 49.208 133.486 49.208C131.566 49.208 130.126 50.712 130.126 53.16C130.126 55.96 131.678 57.16 133.661 57.16C134.926 57.16 135.902 56.776 136.718 56.136L136.51 54.856C135.678 55.512 134.878 55.944 133.774 55.944C132.446 55.944 131.598 55.112 131.549 53.336H136.734C136.734 53.24 136.734 53.112 136.734 53.032ZM135.294 52.264H131.614C131.838 50.952 132.59 50.328 133.47 50.328C134.574 50.328 135.118 51.032 135.294 52.264ZM145.262 52.968C145.262 50.424 143.902 49.208 142.254 49.208C141.214 49.208 140.478 49.736 139.966 50.264V45.448L138.542 45.672V56.616C139.55 56.92 140.366 57.096 141.518 57.096C143.726 57.096 145.262 55.752 145.262 52.968ZM143.822 53.032C143.822 55 142.99 55.88 141.502 55.88C140.798 55.88 140.446 55.8 139.966 55.624V51.72C140.542 51 141.246 50.472 142.046 50.472C143.07 50.472 143.822 51.368 143.822 53.032ZM156.365 57V51.656C156.365 49.96 155.469 49.208 153.613 49.208C152.429 49.208 151.565 49.48 150.653 49.848L150.845 51.08C151.677 50.712 152.557 50.424 153.485 50.424C154.365 50.424 154.941 50.76 154.941 51.72V52.04C151.757 52.376 150.125 53.128 150.125 55.032C150.125 56.328 150.989 57.16 152.365 57.16C153.613 57.16 154.445 56.6 155.053 55.976L155.213 57H156.365ZM154.941 54.904C154.301 55.56 153.501 55.976 152.669 55.976C151.949 55.976 151.533 55.576 151.533 54.952C151.533 54.168 152.125 53.4 154.941 53.128V54.904ZM165.373 52.968C165.373 50.424 164.013 49.208 162.365 49.208C161.245 49.208 160.461 49.8 159.885 50.472L159.709 49.368H158.573V59.976L159.997 59.768V56.76C160.477 56.952 161.165 57.096 161.917 57.096C163.773 57.096 165.373 55.752 165.373 52.968ZM163.933 53.032C163.933 54.92 163.053 55.896 161.853 55.896C161.037 55.896 160.573 55.768 159.997 55.48V51.816C160.605 51 161.277 50.472 162.141 50.472C163.181 50.472 163.933 51.368 163.933 53.032ZM173.983 52.968C173.983 50.424 172.623 49.208 170.975 49.208C169.855 49.208 169.071 49.8 168.495 50.472L168.319 49.368H167.183V59.976L168.607 59.768V56.76C169.087 56.952 169.775 57.096 170.527 57.096C172.383 57.096 173.983 55.752 173.983 52.968ZM172.543 53.032C172.543 54.92 171.663 55.896 170.463 55.896C169.647 55.896 169.183 55.768 168.607 55.48V51.816C169.215 51 169.887 50.472 170.751 50.472C171.791 50.472 172.543 51.368 172.543 53.032ZM177.328 57V45.448L175.904 45.672V57H177.328ZM181.411 46.936C181.411 46.44 181.011 46.024 180.515 46.024C180.019 46.024 179.603 46.44 179.603 46.936C179.603 47.432 180.019 47.832 180.515 47.832C181.011 47.832 181.411 47.432 181.411 46.936ZM181.219 57V49.368H179.795V57H181.219ZM189.301 56.344L189.093 55.064C188.309 55.736 187.637 55.912 186.869 55.912C185.525 55.912 184.581 55.032 184.581 53.176C184.581 51.4 185.461 50.456 186.709 50.456C187.589 50.456 188.309 50.728 189.013 51.304L189.221 49.912C188.645 49.496 187.845 49.208 186.725 49.208C184.741 49.208 183.141 50.584 183.141 53.192C183.141 55.736 184.645 57.16 186.693 57.16C187.717 57.16 188.517 56.936 189.301 56.344ZM196.849 57V51.656C196.849 49.96 195.953 49.208 194.097 49.208C192.913 49.208 192.049 49.48 191.137 49.848L191.329 51.08C192.161 50.712 193.041 50.424 193.969 50.424C194.849 50.424 195.425 50.76 195.425 51.72V52.04C192.241 52.376 190.609 53.128 190.609 55.032C190.609 56.328 191.473 57.16 192.849 57.16C194.097 57.16 194.929 56.6 195.537 55.976L195.697 57H196.849ZM195.425 54.904C194.785 55.56 193.985 55.976 193.153 55.976C192.433 55.976 192.017 55.576 192.017 54.952C192.017 54.168 192.609 53.4 195.425 53.128V54.904ZM202.722 57.032L202.53 55.816C202.354 55.848 202.13 55.864 201.874 55.864C201.074 55.864 200.818 55.48 200.818 54.856V50.568H202.658L202.466 49.368H200.818V46.616L199.426 46.824V49.368H198.274V50.568H199.426V55.112C199.426 56.648 200.306 57.128 201.65 57.128C202.146 57.128 202.482 57.08 202.722 57.032ZM206.176 46.936C206.176 46.44 205.776 46.024 205.28 46.024C204.784 46.024 204.368 46.44 204.368 46.936C204.368 47.432 204.784 47.832 205.28 47.832C205.776 47.832 206.176 47.432 206.176 46.936ZM205.984 57V49.368H204.56V57H205.984ZM214.963 53.192C214.963 50.68 213.459 49.208 211.411 49.208C209.379 49.208 207.907 50.68 207.907 53.192C207.907 55.704 209.379 57.16 211.411 57.16C213.459 57.16 214.963 55.704 214.963 53.192ZM213.523 53.192C213.523 54.792 212.819 55.976 211.411 55.976C210.067 55.976 209.347 54.76 209.347 53.192C209.347 51.592 210.035 50.408 211.411 50.408C212.787 50.408 213.523 51.624 213.523 53.192ZM223 57V51.448C223 50.072 222.232 49.208 220.792 49.208C219.704 49.208 218.808 49.816 218.088 50.472L217.912 49.368H216.776V57H218.2V51.72C218.888 50.984 219.656 50.488 220.408 50.488C221.24 50.488 221.576 51.016 221.576 51.8V57H223ZM226.702 57V55.096H225.118V57H226.702ZM240.562 56.136L240.338 54.712C239.458 55.352 238.418 55.816 237.234 55.816C235.01 55.816 233.666 54.136 233.666 51.48C233.666 48.824 234.994 47.128 237.234 47.128C238.418 47.128 239.362 47.592 240.162 48.2L240.386 46.664C239.538 46.088 238.562 45.752 237.25 45.752C234.146 45.752 232.114 48.072 232.114 51.496C232.114 54.904 234.114 57.208 237.218 57.208C238.482 57.208 239.714 56.76 240.562 56.136ZM249.041 53.192C249.041 50.68 247.537 49.208 245.489 49.208C243.457 49.208 241.985 50.68 241.985 53.192C241.985 55.704 243.457 57.16 245.489 57.16C247.537 57.16 249.041 55.704 249.041 53.192ZM247.601 53.192C247.601 54.792 246.897 55.976 245.489 55.976C244.145 55.976 243.425 54.76 243.425 53.192C243.425 51.592 244.113 50.408 245.489 50.408C246.865 50.408 247.601 51.624 247.601 53.192ZM257.078 57V51.448C257.078 50.072 256.31 49.208 254.87 49.208C253.782 49.208 252.886 49.816 252.166 50.472L251.99 49.368H250.854V57H252.278V51.72C252.966 50.984 253.734 50.488 254.486 50.488C255.318 50.488 255.654 51.016 255.654 51.8V57H257.078ZM262.908 46.92L262.7 45.624C262.556 45.624 262.38 45.592 262.092 45.592C260.732 45.592 259.724 46.168 259.724 47.688V49.368H258.572V50.568H259.724V57H261.116V50.568H262.828L262.652 49.368H261.116V47.832C261.116 47.128 261.516 46.856 262.172 46.856C262.46 46.856 262.748 46.888 262.908 46.92ZM265.989 46.936C265.989 46.44 265.589 46.024 265.093 46.024C264.597 46.024 264.181 46.44 264.181 46.936C264.181 47.432 264.597 47.832 265.093 47.832C265.589 47.832 265.989 47.432 265.989 46.936ZM265.797 57V49.368H264.373V57H265.797ZM269.959 56.408C270.263 56.472 270.487 56.52 270.903 56.6L271.815 56.76C272.903 56.952 273.255 57.272 273.255 57.736C273.255 58.376 272.423 58.888 270.935 58.888C269.447 58.888 268.663 58.44 268.663 57.832C268.663 57.304 269.063 56.856 269.959 56.408ZM272.327 51.848C272.327 52.76 271.719 53.48 270.743 53.48C269.799 53.48 269.191 52.792 269.191 51.912C269.191 50.984 269.783 50.248 270.743 50.248C271.687 50.248 272.327 50.936 272.327 51.848ZM272.711 49.848C272.183 49.432 271.511 49.208 270.743 49.208C269.191 49.208 267.815 50.216 267.815 51.864C267.815 52.904 268.391 53.72 269.239 54.136C268.727 54.44 268.439 54.808 268.439 55.176C268.439 55.464 268.583 55.736 268.919 55.976C267.847 56.552 267.303 57.16 267.303 57.944C267.303 59.288 268.887 59.912 270.871 59.912C272.855 59.912 274.599 59.16 274.599 57.56C274.599 56.376 273.591 55.864 271.975 55.576L271.431 55.48C270.087 55.24 269.815 55.176 269.815 54.904C269.815 54.76 269.975 54.584 270.199 54.44C270.391 54.472 270.583 54.488 270.775 54.488C272.327 54.488 273.703 53.496 273.703 51.864C273.703 51.432 273.607 51.032 273.399 50.68L274.855 50.536L274.647 49.256L272.711 49.848ZM282.406 57V49.368H280.982V54.648C280.294 55.384 279.526 55.88 278.774 55.88C277.942 55.88 277.606 55.352 277.606 54.568V49.368H276.182V54.92C276.182 56.296 276.934 57.16 278.39 57.16C279.462 57.16 280.374 56.568 281.094 55.896L281.27 57H282.406ZM288.923 50.568L288.699 49.208C287.451 49.272 286.571 50.056 286.027 50.92L285.787 49.368H284.651V57H286.075V52.488C286.587 51.48 287.659 50.632 288.923 50.568ZM292.114 46.936C292.114 46.44 291.714 46.024 291.218 46.024C290.722 46.024 290.306 46.44 290.306 46.936C290.306 47.432 290.722 47.832 291.218 47.832C291.714 47.832 292.114 47.432 292.114 46.936ZM291.922 57V49.368H290.498V57H291.922ZM300.5 57V51.448C300.5 50.072 299.732 49.208 298.292 49.208C297.204 49.208 296.308 49.816 295.588 50.472L295.412 49.368H294.276V57H295.7V51.72C296.388 50.984 297.156 50.488 297.908 50.488C298.74 50.488 299.076 51.016 299.076 51.8V57H300.5ZM304.522 56.408C304.826 56.472 305.05 56.52 305.466 56.6L306.378 56.76C307.466 56.952 307.818 57.272 307.818 57.736C307.818 58.376 306.986 58.888 305.498 58.888C304.01 58.888 303.226 58.44 303.226 57.832C303.226 57.304 303.626 56.856 304.522 56.408ZM306.89 51.848C306.89 52.76 306.282 53.48 305.306 53.48C304.362 53.48 303.754 52.792 303.754 51.912C303.754 50.984 304.346 50.248 305.306 50.248C306.25 50.248 306.89 50.936 306.89 51.848ZM307.274 49.848C306.746 49.432 306.074 49.208 305.306 49.208C303.754 49.208 302.378 50.216 302.378 51.864C302.378 52.904 302.954 53.72 303.802 54.136C303.29 54.44 303.002 54.808 303.002 55.176C303.002 55.464 303.146 55.736 303.482 55.976C302.41 56.552 301.866 57.16 301.866 57.944C301.866 59.288 303.45 59.912 305.434 59.912C307.418 59.912 309.162 59.16 309.162 57.56C309.162 56.376 308.154 55.864 306.538 55.576L305.994 55.48C304.65 55.24 304.378 55.176 304.378 54.904C304.378 54.76 304.538 54.584 304.762 54.44C304.954 54.472 305.146 54.488 305.338 54.488C306.89 54.488 308.266 53.496 308.266 51.864C308.266 51.432 308.17 51.032 307.962 50.68L309.418 50.536L309.21 49.256L307.274 49.848ZM319.62 54.872C319.62 53.416 318.772 52.872 316.884 52.392C315.684 52.088 315.3 51.8 315.3 51.288C315.3 50.744 315.748 50.408 316.612 50.408C317.412 50.408 318.26 50.68 318.932 51.064L319.156 49.72C318.436 49.4 317.588 49.208 316.644 49.208C314.98 49.208 313.956 50.104 313.956 51.32C313.956 52.68 314.676 53.224 316.468 53.672C317.844 54.008 318.276 54.264 318.276 54.968C318.276 55.608 317.7 55.976 316.724 55.976C315.684 55.976 314.756 55.592 314.036 55.096L313.828 56.44C314.484 56.808 315.604 57.16 316.612 57.16C318.58 57.16 319.62 56.264 319.62 54.872ZM325.034 57.032L324.842 55.816C324.666 55.848 324.442 55.864 324.186 55.864C323.386 55.864 323.13 55.48 323.13 54.856V50.568H324.97L324.778 49.368H323.13V46.616L321.738 46.824V49.368H320.586V50.568H321.738V55.112C321.738 56.648 322.618 57.128 323.962 57.128C324.458 57.128 324.794 57.08 325.034 57.032ZM332.537 57V51.656C332.537 49.96 331.641 49.208 329.785 49.208C328.601 49.208 327.737 49.48 326.825 49.848L327.017 51.08C327.849 50.712 328.729 50.424 329.657 50.424C330.537 50.424 331.113 50.76 331.113 51.72V52.04C327.929 52.376 326.297 53.128 326.297 55.032C326.297 56.328 327.161 57.16 328.537 57.16C329.785 57.16 330.617 56.6 331.225 55.976L331.385 57H332.537ZM331.113 54.904C330.473 55.56 329.673 55.976 328.841 55.976C328.121 55.976 327.705 55.576 327.705 54.952C327.705 54.168 328.297 53.4 331.113 53.128V54.904ZM338.409 57.032L338.217 55.816C338.041 55.848 337.817 55.864 337.561 55.864C336.761 55.864 336.505 55.48 336.505 54.856V50.568H338.345L338.153 49.368H336.505V46.616L335.113 46.824V49.368H333.961V50.568H335.113V55.112C335.113 56.648 335.993 57.128 337.337 57.128C337.833 57.128 338.169 57.08 338.409 57.032ZM346.249 53.032C346.249 50.92 345.225 49.208 343.001 49.208C341.081 49.208 339.641 50.712 339.641 53.16C339.641 55.96 341.193 57.16 343.177 57.16C344.441 57.16 345.417 56.776 346.233 56.136L346.025 54.856C345.193 55.512 344.393 55.944 343.289 55.944C341.961 55.944 341.113 55.112 341.065 53.336H346.249C346.249 53.24 346.249 53.112 346.249 53.032ZM344.809 52.264H341.129C341.353 50.952 342.105 50.328 342.985 50.328C344.089 50.328 344.633 51.032 344.809 52.264ZM361.381 56.728L358.997 54.344C359.541 53.368 359.909 52.184 360.133 50.872L358.821 50.584C358.661 51.704 358.405 52.648 358.053 53.4L355.013 50.36C354.245 49.592 353.909 49.08 353.909 48.392C353.909 47.608 354.405 47.064 355.413 47.064C356.213 47.064 357.061 47.4 357.909 47.944L358.149 46.44C357.397 46.024 356.485 45.752 355.429 45.752C353.509 45.752 352.421 46.984 352.421 48.424C352.421 49.464 352.821 50.136 353.525 50.872C352.037 51.592 351.013 52.648 351.013 54.232C351.013 56.136 352.357 57.208 354.645 57.208C356.117 57.208 357.317 56.584 358.213 55.512L359.829 57.096L361.381 56.728ZM357.317 54.616C356.581 55.496 355.669 55.928 354.661 55.928C353.381 55.928 352.517 55.16 352.517 54.072C352.517 53.112 353.205 52.296 354.389 51.736L357.317 54.616ZM372.347 57V45.448L370.923 45.672V49.608C370.443 49.416 369.755 49.272 369.003 49.272C367.147 49.272 365.547 50.616 365.547 53.4C365.547 55.96 366.907 57.16 368.555 57.16C369.675 57.16 370.459 56.584 371.035 55.896L371.211 57H372.347ZM370.923 54.552C370.315 55.368 369.643 55.896 368.763 55.896C367.739 55.896 366.987 55.016 366.987 53.336C366.987 51.448 367.851 50.472 369.051 50.472C369.867 50.472 370.331 50.6 370.923 50.904V54.552ZM381.213 53.192C381.213 50.68 379.709 49.208 377.661 49.208C375.629 49.208 374.157 50.68 374.157 53.192C374.157 55.704 375.629 57.16 377.661 57.16C379.709 57.16 381.213 55.704 381.213 53.192ZM379.773 53.192C379.773 54.792 379.069 55.976 377.661 55.976C376.317 55.976 375.597 54.76 375.597 53.192C375.597 51.592 376.285 50.408 377.661 50.408C379.037 50.408 379.773 51.624 379.773 53.192ZM69.744 71.192C69.744 68.68 68.24 67.208 66.192 67.208C64.16 67.208 62.688 68.68 62.688 71.192C62.688 73.704 64.16 75.16 66.192 75.16C68.24 75.16 69.744 73.704 69.744 71.192ZM68.304 71.192C68.304 72.792 67.6 73.976 66.192 73.976C64.848 73.976 64.128 72.76 64.128 71.192C64.128 69.592 64.816 68.408 66.192 68.408C67.568 68.408 68.304 69.624 68.304 71.192ZM75.2215 75.032L75.0295 73.816C74.8535 73.848 74.6295 73.864 74.3735 73.864C73.5735 73.864 73.3175 73.48 73.3175 72.856V68.568H75.1575L74.9655 67.368H73.3175V64.616L71.9255 64.824V67.368H70.7735V68.568H71.9255V73.112C71.9255 74.648 72.8055 75.128 74.1495 75.128C74.6455 75.128 74.9815 75.08 75.2215 75.032ZM83.1721 75V69.448C83.1721 68.072 82.4041 67.208 80.9641 67.208C79.8761 67.208 78.9961 67.816 78.3721 68.376V63.448L76.9481 63.672V75H78.3721V69.72C79.0601 68.984 79.8281 68.488 80.5801 68.488C81.4121 68.488 81.7481 69.016 81.7481 69.8V75H83.1721ZM91.5616 71.032C91.5616 68.92 90.5376 67.208 88.3136 67.208C86.3936 67.208 84.9536 68.712 84.9536 71.16C84.9536 73.96 86.5056 75.16 88.4896 75.16C89.7536 75.16 90.7296 74.776 91.5456 74.136L91.3376 72.856C90.5056 73.512 89.7056 73.944 88.6016 73.944C87.2736 73.944 86.4256 73.112 86.3776 71.336H91.5616C91.5616 71.24 91.5616 71.112 91.5616 71.032ZM90.1216 70.264H86.4416C86.6656 68.952 87.4176 68.328 88.2976 68.328C89.4016 68.328 89.9456 69.032 90.1216 70.264ZM97.642 68.568L97.418 67.208C96.17 67.272 95.29 68.056 94.746 68.92L94.506 67.368H93.37V75H94.794V70.488C95.306 69.48 96.378 68.632 97.642 68.568ZM106.284 75.032L106.092 73.816C105.916 73.848 105.692 73.864 105.436 73.864C104.636 73.864 104.38 73.48 104.38 72.856V68.568H106.22L106.028 67.368H104.38V64.616L102.988 64.824V67.368H101.836V68.568H102.988V73.112C102.988 74.648 103.868 75.128 105.212 75.128C105.708 75.128 106.044 75.08 106.284 75.032ZM113.787 75V69.656C113.787 67.96 112.891 67.208 111.035 67.208C109.851 67.208 108.987 67.48 108.075 67.848L108.267 69.08C109.099 68.712 109.979 68.424 110.907 68.424C111.787 68.424 112.363 68.76 112.363 69.72V70.04C109.179 70.376 107.547 71.128 107.547 73.032C107.547 74.328 108.411 75.16 109.787 75.16C111.035 75.16 111.867 74.6 112.475 73.976L112.635 75H113.787ZM112.363 72.904C111.723 73.56 110.923 73.976 110.091 73.976C109.371 73.976 108.955 73.576 108.955 72.952C108.955 72.168 109.547 71.4 112.363 71.128V72.904ZM121.323 72.872C121.323 71.416 120.475 70.872 118.587 70.392C117.387 70.088 117.003 69.8 117.003 69.288C117.003 68.744 117.451 68.408 118.315 68.408C119.115 68.408 119.963 68.68 120.635 69.064L120.859 67.72C120.139 67.4 119.291 67.208 118.347 67.208C116.683 67.208 115.659 68.104 115.659 69.32C115.659 70.68 116.379 71.224 118.171 71.672C119.547 72.008 119.979 72.264 119.979 72.968C119.979 73.608 119.403 73.976 118.427 73.976C117.387 73.976 116.459 73.592 115.739 73.096L115.531 74.44C116.187 74.808 117.307 75.16 118.315 75.16C120.283 75.16 121.323 74.264 121.323 72.872ZM129.441 74.872L125.953 70.744L129.169 67.368H127.457L124.497 70.568V63.448L123.073 63.672V75H124.497V71L127.889 75.112L129.441 74.872ZM135.964 72.872C135.964 71.416 135.116 70.872 133.228 70.392C132.028 70.088 131.644 69.8 131.644 69.288C131.644 68.744 132.092 68.408 132.956 68.408C133.756 68.408 134.604 68.68 135.276 69.064L135.5 67.72C134.78 67.4 133.932 67.208 132.988 67.208C131.324 67.208 130.3 68.104 130.3 69.32C130.3 70.68 131.02 71.224 132.812 71.672C134.188 72.008 134.62 72.264 134.62 72.968C134.62 73.608 134.044 73.976 133.068 73.976C132.028 73.976 131.1 73.592 130.38 73.096L130.172 74.44C130.828 74.808 131.948 75.16 132.956 75.16C134.924 75.16 135.964 74.264 135.964 72.872Z" fill="#ABABAB"/>
<rect x="62" y="88" width="346" height="28" rx="14" fill="#D9D9D9"/>
<path d="M62 102C62 94.268 68.268 88 76 88H267V116H76C68.268 116 62 109.732 62 102V102Z" fill="#10C84F"/>
<path d="M79.508 101.316C78.304 100.84 77.898 100.49 77.898 99.888C77.898 99.3 78.346 98.852 79.102 98.852C79.872 98.852 80.376 99.272 80.376 99.916C80.376 100.49 80.054 100.924 79.508 101.316ZM78.64 102.758C80.11 103.346 80.558 103.682 80.558 104.424C80.558 105.138 79.942 105.586 79.158 105.586C78.29 105.586 77.632 105.11 77.632 104.312C77.632 103.682 78.038 103.164 78.64 102.758ZM77.184 102.072C76.134 102.66 75.49 103.514 75.49 104.536C75.49 105.964 76.736 107.182 79.116 107.182C81.37 107.182 82.742 106.02 82.742 104.396C82.742 103.248 82.168 102.548 81.034 101.988C81.916 101.428 82.462 100.7 82.462 99.79C82.462 98.376 81.202 97.354 79.186 97.354C77.24 97.354 75.798 98.306 75.798 99.93C75.798 100.882 76.316 101.554 77.184 102.072ZM85.9321 101.68C86.3941 100.336 87.7241 99.594 89.5021 99.188L89.2081 97.34C86.0861 97.956 83.7481 99.79 83.7481 103.178C83.7481 105.796 85.2321 107.182 87.3881 107.182C89.3761 107.182 90.9021 105.866 90.9021 103.864C90.9021 101.918 89.6841 100.994 88.2141 100.994C87.3321 100.994 86.6181 101.232 85.9321 101.68ZM85.8481 103.192C86.3661 102.842 86.8701 102.646 87.4021 102.646C88.2841 102.646 88.7321 103.094 88.7321 104.004C88.7321 104.928 88.2001 105.488 87.3881 105.488C86.5201 105.488 85.8621 104.774 85.8481 103.192ZM96.5462 100.196C96.5462 98.404 95.5102 97.424 94.2082 97.424C92.9062 97.424 91.8562 98.418 91.8562 100.21C91.8562 102.016 92.8922 102.996 94.2082 102.996C95.5102 102.996 96.5462 102.002 96.5462 100.196ZM101.236 97.718L99.9762 97.438L93.9282 106.818L95.1742 107.098L101.236 97.718ZM95.0762 100.196C95.0762 101.204 94.7962 101.806 94.2082 101.806C93.6202 101.806 93.3122 101.204 93.3122 100.21C93.3122 99.188 93.6062 98.6 94.2082 98.6C94.7822 98.6 95.0762 99.202 95.0762 100.196ZM103.308 104.326C103.308 102.52 102.272 101.54 100.956 101.54C99.6542 101.54 98.6182 102.534 98.6182 104.34C98.6182 106.132 99.6402 107.112 100.956 107.112C102.258 107.112 103.308 106.118 103.308 104.326ZM101.838 104.326C101.838 105.334 101.544 105.936 100.956 105.936C100.382 105.936 100.074 105.334 100.074 104.34C100.074 103.332 100.354 102.73 100.956 102.73C101.53 102.73 101.838 103.332 101.838 104.326Z" fill="black"/>
<path d="M75.32 164.08C75.32 159.98 72.8 157.2 68 157.2H63.26V171H68.1C72.76 171 75.32 168.18 75.32 164.08ZM71.88 164.1C71.88 167.06 70.36 168.34 67.92 168.34H66.68V159.86H67.92C70.26 159.86 71.88 161.2 71.88 164.1ZM86.0816 166.1C86.0816 162.96 84.0816 161 81.3616 161C78.6616 161 76.6616 162.98 76.6616 166.12C76.6616 169.26 78.6416 171.2 81.3416 171.2C84.0616 171.2 86.0816 169.24 86.0816 166.1ZM83.1616 166.12C83.1616 167.7 82.5216 168.76 81.3616 168.76C80.2216 168.76 79.5816 167.68 79.5816 166.1C79.5816 164.5 80.2016 163.48 81.3616 163.48C82.5216 163.48 83.1616 164.54 83.1616 166.12ZM100.695 161.2H97.8945L96.5945 166.9L95.1945 161.2H92.4745L91.0945 166.92L89.7545 161.06L86.6345 161.44L89.3145 171H92.2145L93.6345 165.4L95.0745 171H97.9545L100.695 161.2ZM110.647 171V164.04C110.647 162.14 109.687 161 107.867 161C106.627 161 105.687 161.68 104.807 162.54L104.587 161.2H101.927V171H104.947V164.56C105.487 164.02 106.027 163.68 106.607 163.68C107.327 163.68 107.607 164.16 107.607 164.86V171H110.647ZM115.769 171V156.56L112.729 157.04V171H115.769ZM126.843 166.1C126.843 162.96 124.843 161 122.123 161C119.423 161 117.423 162.98 117.423 166.12C117.423 169.26 119.403 171.2 122.103 171.2C124.823 171.2 126.843 169.24 126.843 166.1ZM123.923 166.12C123.923 167.7 123.283 168.76 122.123 168.76C120.983 168.76 120.343 167.68 120.343 166.1C120.343 164.5 120.963 163.48 122.123 163.48C123.283 163.48 123.923 164.54 123.923 166.12ZM136.59 171V164.44C136.59 161.94 135.25 161.04 132.55 161.04C130.95 161.04 129.69 161.34 128.57 161.8L128.93 164.08C129.97 163.62 130.99 163.34 132.09 163.34C133.09 163.34 133.57 163.72 133.57 164.58V164.76C129.73 165.1 127.97 166.18 127.97 168.48C127.97 170.26 129.07 171.2 130.63 171.2C131.97 171.2 132.91 170.62 133.71 169.78L133.91 171H136.59ZM133.57 168.3C133.03 168.78 132.47 169.04 131.89 169.04C131.33 169.04 130.95 168.7 130.95 168.08C130.95 167.22 131.51 166.54 133.57 166.22V168.3ZM147.387 171V156.56L144.367 157.04V161.46C143.807 161.26 143.187 161.14 142.287 161.14C140.127 161.14 138.147 162.64 138.147 166.38C138.147 169.68 139.687 171.2 141.687 171.2C142.947 171.2 143.847 170.46 144.507 169.72L144.707 171H147.387ZM144.367 167.52C143.847 168.1 143.327 168.52 142.687 168.52C141.827 168.52 141.187 167.84 141.187 166.16C141.187 164.28 141.947 163.5 142.947 163.5C143.587 163.5 143.927 163.58 144.367 163.78V167.52ZM152.766 158.3C152.766 157.3 152.026 156.66 151.046 156.66C150.086 156.66 149.326 157.3 149.326 158.3C149.326 159.28 150.086 159.92 151.046 159.92C152.026 159.92 152.766 159.28 152.766 158.3ZM152.566 171V161.2H149.526V171H152.566ZM163.42 171V164.04C163.42 162.14 162.46 161 160.64 161C159.4 161 158.46 161.68 157.58 162.54L157.36 161.2H154.7V171H157.72V164.56C158.26 164.02 158.8 163.68 159.38 163.68C160.1 163.68 160.38 164.16 160.38 164.86V171H163.42ZM167.502 170.82C167.982 170.9 168.322 170.96 169.042 171.02L170.502 171.14C171.562 171.26 171.922 171.46 171.922 171.92C171.922 172.56 171.022 173.08 169.442 173.08C167.682 173.08 166.922 172.6 166.922 171.92C166.922 171.58 167.102 171.22 167.502 170.82ZM170.702 164.42C170.702 165.36 170.182 166.04 169.262 166.04C168.382 166.04 167.862 165.4 167.862 164.48C167.862 163.54 168.382 162.82 169.262 162.82C170.162 162.82 170.702 163.5 170.702 164.42ZM172.242 161.98C171.502 161.4 170.482 161.04 169.242 161.04C166.882 161.04 165.122 162.38 165.122 164.52C165.122 165.78 165.782 166.8 167.002 167.36C166.042 167.9 165.542 168.5 165.542 169.12C165.542 169.5 165.742 169.9 166.082 170.2C165.002 170.8 164.482 171.44 164.482 172.3C164.482 173.8 166.442 174.64 169.202 174.64C172.342 174.64 174.682 173.26 174.682 171.12C174.682 169.64 173.502 169.02 171.542 168.82L169.742 168.7C168.422 168.54 168.182 168.46 168.182 168.18C168.182 168.04 168.262 167.9 168.422 167.74C168.722 167.78 169.022 167.8 169.342 167.8C171.562 167.8 173.402 166.54 173.402 164.42C173.402 164.06 173.342 163.72 173.222 163.38C173.242 163.38 174.942 163.34 174.942 163.34L174.562 161.1L172.242 161.98ZM187.966 167.98C187.966 166.16 187.046 165.5 184.446 164.8C183.066 164.42 182.786 164.2 182.786 163.8C182.786 163.42 183.106 163.16 183.826 163.16C184.766 163.16 185.986 163.5 187.046 164.08L187.426 161.78C186.406 161.32 185.126 161.06 183.806 161.06C181.406 161.06 180.046 162.28 180.046 164.1C180.046 165.94 181.086 166.6 183.546 167.24C184.926 167.58 185.206 167.8 185.206 168.3C185.206 168.76 184.806 169.04 183.966 169.04C182.846 169.04 181.426 168.6 180.266 167.88L179.906 170.18C180.926 170.72 182.386 171.16 183.946 171.16C186.546 171.16 187.966 170.04 187.966 167.98ZM198.063 166.08C198.063 163.24 196.723 161 193.723 161C191.063 161 189.103 162.94 189.103 166.14C189.103 169.64 191.203 171.2 194.143 171.2C195.683 171.2 196.983 170.78 198.043 170.1L197.743 167.98C196.663 168.6 195.603 169 194.523 169C193.203 169 192.283 168.4 192.123 166.86H198.003C198.043 166.7 198.063 166.38 198.063 166.08ZM195.183 165.2H192.103C192.203 163.7 192.803 162.96 193.643 162.96C194.563 162.96 195.083 163.72 195.183 165.2ZM205.521 170.94L205.141 168.46C204.921 168.52 204.681 168.56 204.421 168.56C203.601 168.56 203.221 168.2 203.221 167.4V163.66H205.461L205.081 161.2H203.221V157.82L200.221 158.28V161.2H198.921V163.66H200.221V167.88C200.221 170.38 201.681 171.14 203.781 171.14C204.581 171.14 205.041 171.08 205.521 170.94ZM212.786 170.94L212.406 168.46C212.186 168.52 211.946 168.56 211.686 168.56C210.866 168.56 210.486 168.2 210.486 167.4V163.66H212.726L212.346 161.2H210.486V157.82L207.486 158.28V161.2H206.186V163.66H207.486V167.88C207.486 170.38 208.946 171.14 211.046 171.14C211.846 171.14 212.306 171.08 212.786 170.94ZM217.512 158.3C217.512 157.3 216.772 156.66 215.792 156.66C214.832 156.66 214.072 157.3 214.072 158.3C214.072 159.28 214.832 159.92 215.792 159.92C216.772 159.92 217.512 159.28 217.512 158.3ZM217.312 171V161.2H214.272V171H217.312ZM228.166 171V164.04C228.166 162.14 227.206 161 225.386 161C224.146 161 223.206 161.68 222.326 162.54L222.106 161.2H219.446V171H222.466V164.56C223.006 164.02 223.546 163.68 224.126 163.68C224.846 163.68 225.126 164.16 225.126 164.86V171H228.166ZM232.248 170.82C232.728 170.9 233.068 170.96 233.788 171.02L235.248 171.14C236.308 171.26 236.668 171.46 236.668 171.92C236.668 172.56 235.768 173.08 234.188 173.08C232.428 173.08 231.668 172.6 231.668 171.92C231.668 171.58 231.848 171.22 232.248 170.82ZM235.448 164.42C235.448 165.36 234.928 166.04 234.008 166.04C233.128 166.04 232.608 165.4 232.608 164.48C232.608 163.54 233.128 162.82 234.008 162.82C234.908 162.82 235.448 163.5 235.448 164.42ZM236.988 161.98C236.248 161.4 235.228 161.04 233.988 161.04C231.628 161.04 229.868 162.38 229.868 164.52C229.868 165.78 230.528 166.8 231.748 167.36C230.788 167.9 230.288 168.5 230.288 169.12C230.288 169.5 230.488 169.9 230.828 170.2C229.748 170.8 229.228 171.44 229.228 172.3C229.228 173.8 231.188 174.64 233.948 174.64C237.088 174.64 239.428 173.26 239.428 171.12C239.428 169.64 238.248 169.02 236.288 168.82L234.488 168.7C233.168 168.54 232.928 168.46 232.928 168.18C232.928 168.04 233.008 167.9 233.168 167.74C233.468 167.78 233.768 167.8 234.088 167.8C236.308 167.8 238.148 166.54 238.148 164.42C238.148 164.06 238.088 163.72 237.968 163.38C237.988 163.38 239.688 163.34 239.688 163.34L239.308 161.1L236.988 161.98ZM248.532 167.98C248.532 166.16 247.612 165.5 245.012 164.8C243.632 164.42 243.352 164.2 243.352 163.8C243.352 163.42 243.672 163.16 244.392 163.16C245.332 163.16 246.552 163.5 247.612 164.08L247.992 161.78C246.972 161.32 245.692 161.06 244.372 161.06C241.972 161.06 240.612 162.28 240.612 164.1C240.612 165.94 241.652 166.6 244.112 167.24C245.492 167.58 245.772 167.8 245.772 168.3C245.772 168.76 245.372 169.04 244.532 169.04C243.412 169.04 241.992 168.6 240.832 167.88L240.472 170.18C241.492 170.72 242.952 171.16 244.512 171.16C247.112 171.16 248.532 170.04 248.532 167.98Z" fill="white"/>
<rect x="260" y="162.5" width="2" height="2" rx="1" fill="#D9D9D9"/>
<path d="M279.896 166.358V165.322H278.384V159.008H276.886L272.49 165.434V166.358H277.222V168.5H278.384V166.358H279.896ZM277.222 165.322H273.834L277.222 160.422V165.322ZM287.454 158.952L286.334 158.714L279.726 170.04L280.846 170.278L287.454 158.952ZM291.953 163.096C290.441 162.466 289.853 162.13 289.853 161.276C289.853 160.52 290.441 159.918 291.617 159.918C292.751 159.918 293.381 160.436 293.381 161.248C293.381 161.976 292.807 162.634 291.953 163.096ZM291.281 163.978C293.073 164.706 293.689 165.07 293.689 166.064C293.689 167.016 292.849 167.618 291.617 167.618C290.399 167.618 289.517 167.044 289.517 166.022C289.517 165.168 290.217 164.454 291.281 163.978ZM290.231 163.516C289.083 164.118 288.257 164.958 288.257 166.078C288.257 167.492 289.419 168.682 291.589 168.682C293.661 168.682 294.949 167.562 294.949 166.106C294.949 164.748 294.207 164.118 292.961 163.53C293.871 163.012 294.613 162.284 294.613 161.22C294.613 159.876 293.479 158.854 291.645 158.854C289.825 158.854 288.621 159.89 288.621 161.29C288.621 162.438 289.265 163.04 290.231 163.516Z" fill="#ABABAB"/>
<rect x="306" y="162.5" width="2" height="2" rx="1" fill="#D9D9D9"/>
<path d="M324.79 168.5L324.622 167.38H320.268L322.97 164.636C324.132 163.446 324.65 162.676 324.65 161.528C324.65 159.904 323.53 158.854 321.696 158.854C320.52 158.854 319.568 159.316 318.868 159.918L319.05 161.136C319.792 160.478 320.646 160.016 321.626 160.016C322.732 160.016 323.348 160.548 323.348 161.612C323.348 162.382 322.97 162.984 322.116 163.88L318.616 167.534V168.5H324.79ZM334.197 166.638C334.197 165.364 333.455 164.888 331.803 164.468C330.753 164.202 330.417 163.95 330.417 163.502C330.417 163.026 330.809 162.732 331.565 162.732C332.265 162.732 333.007 162.97 333.595 163.306L333.791 162.13C333.161 161.85 332.419 161.682 331.593 161.682C330.137 161.682 329.241 162.466 329.241 163.53C329.241 164.72 329.871 165.196 331.439 165.588C332.643 165.882 333.021 166.106 333.021 166.722C333.021 167.282 332.517 167.604 331.663 167.604C330.753 167.604 329.941 167.268 329.311 166.834L329.129 168.01C329.703 168.332 330.683 168.64 331.565 168.64C333.287 168.64 334.197 167.856 334.197 166.638ZM341.132 165.028C341.132 163.18 340.236 161.682 338.29 161.682C336.61 161.682 335.35 162.998 335.35 165.14C335.35 167.59 336.708 168.64 338.444 168.64C339.55 168.64 340.404 168.304 341.118 167.744L340.936 166.624C340.208 167.198 339.508 167.576 338.542 167.576C337.38 167.576 336.638 166.848 336.596 165.294H341.132C341.132 165.21 341.132 165.098 341.132 165.028ZM339.872 164.356H336.652C336.848 163.208 337.506 162.662 338.276 162.662C339.242 162.662 339.718 163.278 339.872 164.356ZM347.726 167.926L347.544 166.806C346.858 167.394 346.27 167.548 345.598 167.548C344.422 167.548 343.596 166.778 343.596 165.154C343.596 163.6 344.366 162.774 345.458 162.774C346.228 162.774 346.858 163.012 347.474 163.516L347.656 162.298C347.152 161.934 346.452 161.682 345.472 161.682C343.736 161.682 342.336 162.886 342.336 165.168C342.336 167.394 343.652 168.64 345.444 168.64C346.34 168.64 347.04 168.444 347.726 167.926ZM357.757 165.028C357.757 163.18 356.861 161.682 354.915 161.682C353.235 161.682 351.975 162.998 351.975 165.14C351.975 167.59 353.333 168.64 355.069 168.64C356.175 168.64 357.029 168.304 357.743 167.744L357.561 166.624C356.833 167.198 356.133 167.576 355.167 167.576C354.005 167.576 353.263 166.848 353.221 165.294H357.757C357.757 165.21 357.757 165.098 357.757 165.028ZM356.497 164.356H353.277C353.473 163.208 354.131 162.662 354.901 162.662C355.867 162.662 356.343 163.278 356.497 164.356ZM360.683 168.5V158.392L359.437 158.588V168.5H360.683ZM367.798 168.5V163.824C367.798 162.34 367.014 161.682 365.39 161.682C364.354 161.682 363.598 161.92 362.8 162.242L362.968 163.32C363.696 162.998 364.466 162.746 365.278 162.746C366.048 162.746 366.552 163.04 366.552 163.88V164.16C363.766 164.454 362.338 165.112 362.338 166.778C362.338 167.912 363.094 168.64 364.298 168.64C365.39 168.64 366.118 168.15 366.65 167.604L366.79 168.5H367.798ZM366.552 166.666C365.992 167.24 365.292 167.604 364.564 167.604C363.934 167.604 363.57 167.254 363.57 166.708C363.57 166.022 364.088 165.35 366.552 165.112V166.666ZM375.68 164.972C375.68 162.746 374.49 161.682 373.048 161.682C372.068 161.682 371.382 162.2 370.878 162.788L370.724 161.822H369.73V171.104L370.976 170.922V168.29C371.396 168.458 371.998 168.584 372.656 168.584C374.28 168.584 375.68 167.408 375.68 164.972ZM374.42 165.028C374.42 166.68 373.65 167.534 372.6 167.534C371.886 167.534 371.48 167.422 370.976 167.17V163.964C371.508 163.25 372.096 162.788 372.852 162.788C373.762 162.788 374.42 163.572 374.42 165.028ZM381.925 166.638C381.925 165.364 381.183 164.888 379.531 164.468C378.481 164.202 378.145 163.95 378.145 163.502C378.145 163.026 378.537 162.732 379.293 162.732C379.993 162.732 380.735 162.97 381.323 163.306L381.519 162.13C380.889 161.85 380.147 161.682 379.321 161.682C377.865 161.682 376.969 162.466 376.969 163.53C376.969 164.72 377.599 165.196 379.167 165.588C380.371 165.882 380.749 166.106 380.749 166.722C380.749 167.282 380.245 167.604 379.391 167.604C378.481 167.604 377.669 167.268 377.039 166.834L376.857 168.01C377.431 168.332 378.411 168.64 379.293 168.64C381.015 168.64 381.925 167.856 381.925 166.638ZM388.861 165.028C388.861 163.18 387.965 161.682 386.019 161.682C384.339 161.682 383.079 162.998 383.079 165.14C383.079 167.59 384.437 168.64 386.173 168.64C387.279 168.64 388.133 168.304 388.847 167.744L388.665 166.624C387.937 167.198 387.237 167.576 386.271 167.576C385.109 167.576 384.367 166.848 384.325 165.294H388.861C388.861 165.21 388.861 165.098 388.861 165.028ZM387.601 164.356H384.381C384.577 163.208 385.235 162.662 386.005 162.662C386.971 162.662 387.447 163.278 387.601 164.356ZM396.015 168.5V158.392L394.769 158.588V162.032C394.349 161.864 393.747 161.738 393.089 161.738C391.465 161.738 390.065 162.914 390.065 165.35C390.065 167.59 391.255 168.64 392.697 168.64C393.677 168.64 394.363 168.136 394.867 167.534L395.021 168.5H396.015ZM394.769 166.358C394.237 167.072 393.649 167.534 392.879 167.534C391.983 167.534 391.325 166.764 391.325 165.294C391.325 163.642 392.081 162.788 393.131 162.788C393.845 162.788 394.251 162.9 394.769 163.166V166.358Z" fill="#ABABAB"/>
<path d="M72.336 194.464C72.336 191.232 70.368 188.96 66.528 188.96H63.328V200H66.464C70.256 200 72.336 197.744 72.336 194.464ZM70.784 194.48C70.784 197.296 69.184 198.64 66.528 198.64H64.832V190.32H66.576C69.104 190.32 70.784 191.712 70.784 194.48ZM80.994 196.192C80.994 193.68 79.49 192.208 77.442 192.208C75.41 192.208 73.938 193.68 73.938 196.192C73.938 198.704 75.41 200.16 77.442 200.16C79.49 200.16 80.994 198.704 80.994 196.192ZM79.554 196.192C79.554 197.792 78.85 198.976 77.442 198.976C76.098 198.976 75.378 197.76 75.378 196.192C75.378 194.592 76.066 193.408 77.442 193.408C78.818 193.408 79.554 194.624 79.554 196.192ZM92.5415 192.368H91.1495L89.5175 197.904L87.8215 192.368H86.6215L84.9255 197.904L83.2455 192.256L81.8855 192.48L84.3495 200H85.4535L87.1975 194.224L88.9575 200H90.0775L92.5415 192.368ZM100.328 200V194.448C100.328 193.072 99.5604 192.208 98.1204 192.208C97.0324 192.208 96.1364 192.816 95.4164 193.472L95.2404 192.368H94.1044V200H95.5284V194.72C96.2164 193.984 96.9844 193.488 97.7364 193.488C98.5684 193.488 98.9044 194.016 98.9044 194.8V200H100.328ZM104.078 200V188.448L102.654 188.672V200H104.078ZM113.057 196.192C113.057 193.68 111.553 192.208 109.505 192.208C107.473 192.208 106.001 193.68 106.001 196.192C106.001 198.704 107.473 200.16 109.505 200.16C111.553 200.16 113.057 198.704 113.057 196.192ZM111.617 196.192C111.617 197.792 110.913 198.976 109.505 198.976C108.161 198.976 107.441 197.76 107.441 196.192C107.441 194.592 108.129 193.408 109.505 193.408C110.881 193.408 111.617 194.624 111.617 196.192ZM120.646 200V194.656C120.646 192.96 119.75 192.208 117.894 192.208C116.71 192.208 115.846 192.48 114.934 192.848L115.126 194.08C115.958 193.712 116.838 193.424 117.766 193.424C118.646 193.424 119.222 193.76 119.222 194.72V195.04C116.038 195.376 114.406 196.128 114.406 198.032C114.406 199.328 115.27 200.16 116.646 200.16C117.894 200.16 118.726 199.6 119.334 198.976L119.494 200H120.646ZM119.222 197.904C118.582 198.56 117.782 198.976 116.95 198.976C116.23 198.976 115.814 198.576 115.814 197.952C115.814 197.168 116.406 196.4 119.222 196.128V197.904ZM129.222 200V188.448L127.798 188.672V192.608C127.318 192.416 126.63 192.272 125.878 192.272C124.022 192.272 122.422 193.616 122.422 196.4C122.422 198.96 123.782 200.16 125.43 200.16C126.55 200.16 127.334 199.584 127.91 198.896L128.086 200H129.222ZM127.798 197.552C127.19 198.368 126.518 198.896 125.638 198.896C124.614 198.896 123.862 198.016 123.862 196.336C123.862 194.448 124.726 193.472 125.926 193.472C126.742 193.472 127.206 193.6 127.798 193.904V197.552ZM133.192 189.936C133.192 189.44 132.792 189.024 132.296 189.024C131.8 189.024 131.384 189.44 131.384 189.936C131.384 190.432 131.8 190.832 132.296 190.832C132.792 190.832 133.192 190.432 133.192 189.936ZM133 200V192.368H131.576V200H133ZM141.578 200V194.448C141.578 193.072 140.81 192.208 139.37 192.208C138.282 192.208 137.386 192.816 136.666 193.472L136.49 192.368H135.354V200H136.778V194.72C137.466 193.984 138.234 193.488 138.986 193.488C139.818 193.488 140.154 194.016 140.154 194.8V200H141.578ZM145.6 199.408C145.904 199.472 146.128 199.52 146.544 199.6L147.456 199.76C148.544 199.952 148.896 200.272 148.896 200.736C148.896 201.376 148.064 201.888 146.576 201.888C145.088 201.888 144.304 201.44 144.304 200.832C144.304 200.304 144.704 199.856 145.6 199.408ZM147.968 194.848C147.968 195.76 147.36 196.48 146.384 196.48C145.44 196.48 144.832 195.792 144.832 194.912C144.832 193.984 145.424 193.248 146.384 193.248C147.328 193.248 147.968 193.936 147.968 194.848ZM148.352 192.848C147.824 192.432 147.152 192.208 146.384 192.208C144.832 192.208 143.456 193.216 143.456 194.864C143.456 195.904 144.032 196.72 144.88 197.136C144.368 197.44 144.08 197.808 144.08 198.176C144.08 198.464 144.224 198.736 144.56 198.976C143.488 199.552 142.944 200.16 142.944 200.944C142.944 202.288 144.528 202.912 146.512 202.912C148.496 202.912 150.24 202.16 150.24 200.56C150.24 199.376 149.232 198.864 147.616 198.576L147.072 198.48C145.728 198.24 145.456 198.176 145.456 197.904C145.456 197.76 145.616 197.584 145.84 197.44C146.032 197.472 146.224 197.488 146.416 197.488C147.968 197.488 149.344 196.496 149.344 194.864C149.344 194.432 149.248 194.032 149.04 193.68L150.496 193.536L150.288 192.256L148.352 192.848ZM160.698 197.872C160.698 196.416 159.85 195.872 157.962 195.392C156.762 195.088 156.378 194.8 156.378 194.288C156.378 193.744 156.826 193.408 157.69 193.408C158.49 193.408 159.338 193.68 160.01 194.064L160.234 192.72C159.514 192.4 158.666 192.208 157.722 192.208C156.058 192.208 155.034 193.104 155.034 194.32C155.034 195.68 155.754 196.224 157.546 196.672C158.922 197.008 159.354 197.264 159.354 197.968C159.354 198.608 158.778 198.976 157.802 198.976C156.762 198.976 155.834 198.592 155.114 198.096L154.906 199.44C155.562 199.808 156.682 200.16 157.69 200.16C159.658 200.16 160.698 199.264 160.698 197.872ZM168.624 196.032C168.624 193.92 167.6 192.208 165.376 192.208C163.456 192.208 162.016 193.712 162.016 196.16C162.016 198.96 163.568 200.16 165.552 200.16C166.816 200.16 167.792 199.776 168.608 199.136L168.4 197.856C167.568 198.512 166.768 198.944 165.664 198.944C164.336 198.944 163.488 198.112 163.44 196.336H168.624C168.624 196.24 168.624 196.112 168.624 196.032ZM167.184 195.264H163.504C163.728 193.952 164.48 193.328 165.36 193.328C166.464 193.328 167.008 194.032 167.184 195.264ZM174.097 200.032L173.905 198.816C173.729 198.848 173.505 198.864 173.249 198.864C172.449 198.864 172.193 198.48 172.193 197.856V193.568H174.033L173.841 192.368H172.193V189.616L170.801 189.824V192.368H169.649V193.568H170.801V198.112C170.801 199.648 171.681 200.128 173.025 200.128C173.521 200.128 173.857 200.08 174.097 200.032ZM179.487 200.032L179.295 198.816C179.119 198.848 178.895 198.864 178.639 198.864C177.839 198.864 177.583 198.48 177.583 197.856V193.568H179.423L179.231 192.368H177.583V189.616L176.191 189.824V192.368H175.039V193.568H176.191V198.112C176.191 199.648 177.071 200.128 178.415 200.128C178.911 200.128 179.247 200.08 179.487 200.032ZM182.942 189.936C182.942 189.44 182.542 189.024 182.046 189.024C181.55 189.024 181.134 189.44 181.134 189.936C181.134 190.432 181.55 190.832 182.046 190.832C182.542 190.832 182.942 190.432 182.942 189.936ZM182.75 200V192.368H181.326V200H182.75ZM191.328 200V194.448C191.328 193.072 190.56 192.208 189.12 192.208C188.032 192.208 187.136 192.816 186.416 193.472L186.24 192.368H185.104V200H186.528V194.72C187.216 193.984 187.984 193.488 188.736 193.488C189.568 193.488 189.904 194.016 189.904 194.8V200H191.328ZM195.35 199.408C195.654 199.472 195.878 199.52 196.294 199.6L197.206 199.76C198.294 199.952 198.646 200.272 198.646 200.736C198.646 201.376 197.814 201.888 196.326 201.888C194.838 201.888 194.054 201.44 194.054 200.832C194.054 200.304 194.454 199.856 195.35 199.408ZM197.718 194.848C197.718 195.76 197.11 196.48 196.134 196.48C195.19 196.48 194.582 195.792 194.582 194.912C194.582 193.984 195.174 193.248 196.134 193.248C197.078 193.248 197.718 193.936 197.718 194.848ZM198.102 192.848C197.574 192.432 196.902 192.208 196.134 192.208C194.582 192.208 193.206 193.216 193.206 194.864C193.206 195.904 193.782 196.72 194.63 197.136C194.118 197.44 193.83 197.808 193.83 198.176C193.83 198.464 193.974 198.736 194.31 198.976C193.238 199.552 192.694 200.16 192.694 200.944C192.694 202.288 194.278 202.912 196.262 202.912C198.246 202.912 199.99 202.16 199.99 200.56C199.99 199.376 198.982 198.864 197.366 198.576L196.822 198.48C195.478 198.24 195.206 198.176 195.206 197.904C195.206 197.76 195.366 197.584 195.59 197.44C195.782 197.472 195.974 197.488 196.166 197.488C197.718 197.488 199.094 196.496 199.094 194.864C199.094 194.432 198.998 194.032 198.79 193.68L200.246 193.536L200.038 192.256L198.102 192.848ZM206.932 197.872C206.932 196.416 206.084 195.872 204.196 195.392C202.996 195.088 202.612 194.8 202.612 194.288C202.612 193.744 203.06 193.408 203.924 193.408C204.724 193.408 205.572 193.68 206.244 194.064L206.468 192.72C205.748 192.4 204.9 192.208 203.956 192.208C202.292 192.208 201.268 193.104 201.268 194.32C201.268 195.68 201.988 196.224 203.78 196.672C205.156 197.008 205.588 197.264 205.588 197.968C205.588 198.608 205.012 198.976 204.036 198.976C202.996 198.976 202.068 198.592 201.348 198.096L201.14 199.44C201.796 199.808 202.916 200.16 203.924 200.16C205.892 200.16 206.932 199.264 206.932 197.872ZM215.814 189.92L215.606 188.624C215.462 188.624 215.286 188.592 214.998 188.592C213.638 188.592 212.63 189.168 212.63 190.688V192.368H211.478V193.568H212.63V200H214.022V193.568H215.734L215.558 192.368H214.022V190.832C214.022 190.128 214.422 189.856 215.078 189.856C215.366 189.856 215.654 189.888 215.814 189.92ZM221.439 193.568L221.215 192.208C219.967 192.272 219.087 193.056 218.543 193.92L218.303 192.368H217.167V200H218.591V195.488C219.103 194.48 220.175 193.632 221.439 193.568ZM229.244 196.192C229.244 193.68 227.74 192.208 225.692 192.208C223.66 192.208 222.188 193.68 222.188 196.192C222.188 198.704 223.66 200.16 225.692 200.16C227.74 200.16 229.244 198.704 229.244 196.192ZM227.804 196.192C227.804 197.792 227.1 198.976 225.692 198.976C224.348 198.976 223.628 197.76 223.628 196.192C223.628 194.592 224.316 193.408 225.692 193.408C227.068 193.408 227.804 194.624 227.804 196.192ZM241.89 200V194.448C241.89 193.072 241.186 192.208 239.73 192.208C238.658 192.208 237.73 192.816 237.042 193.472C236.754 192.688 236.146 192.208 235.026 192.208C233.954 192.208 233.09 192.816 232.37 193.472L232.194 192.368H231.058V200H232.482V194.72C233.17 193.984 233.89 193.488 234.641 193.488C235.474 193.488 235.762 194.016 235.762 194.8V200H237.186V194.72C237.874 193.984 238.594 193.488 239.345 193.488C240.178 193.488 240.466 194.016 240.466 194.8V200H241.89ZM252.948 197.872C252.948 196.416 252.1 195.872 250.212 195.392C249.012 195.088 248.628 194.8 248.628 194.288C248.628 193.744 249.076 193.408 249.94 193.408C250.74 193.408 251.588 193.68 252.26 194.064L252.484 192.72C251.764 192.4 250.916 192.208 249.972 192.208C248.308 192.208 247.284 193.104 247.284 194.32C247.284 195.68 248.004 196.224 249.796 196.672C251.172 197.008 251.604 197.264 251.604 197.968C251.604 198.608 251.028 198.976 250.052 198.976C249.012 198.976 248.084 198.592 247.364 198.096L247.156 199.44C247.812 199.808 248.932 200.16 249.94 200.16C251.908 200.16 252.948 199.264 252.948 197.872ZM260.874 196.032C260.874 193.92 259.85 192.208 257.626 192.208C255.706 192.208 254.266 193.712 254.266 196.16C254.266 198.96 255.818 200.16 257.802 200.16C259.066 200.16 260.042 199.776 260.858 199.136L260.65 197.856C259.818 198.512 259.018 198.944 257.914 198.944C256.586 198.944 255.738 198.112 255.69 196.336H260.874C260.874 196.24 260.874 196.112 260.874 196.032ZM259.434 195.264H255.754C255.978 193.952 256.73 193.328 257.61 193.328C258.714 193.328 259.258 194.032 259.434 195.264ZM266.347 200.032L266.155 198.816C265.979 198.848 265.755 198.864 265.499 198.864C264.699 198.864 264.443 198.48 264.443 197.856V193.568H266.283L266.091 192.368H264.443V189.616L263.051 189.824V192.368H261.899V193.568H263.051V198.112C263.051 199.648 263.931 200.128 265.275 200.128C265.771 200.128 266.107 200.08 266.347 200.032ZM271.737 200.032L271.545 198.816C271.369 198.848 271.145 198.864 270.889 198.864C270.089 198.864 269.833 198.48 269.833 197.856V193.568H271.673L271.481 192.368H269.833V189.616L268.441 189.824V192.368H267.289V193.568H268.441V198.112C268.441 199.648 269.321 200.128 270.665 200.128C271.161 200.128 271.497 200.08 271.737 200.032ZM275.192 189.936C275.192 189.44 274.792 189.024 274.296 189.024C273.8 189.024 273.384 189.44 273.384 189.936C273.384 190.432 273.8 190.832 274.296 190.832C274.792 190.832 275.192 190.432 275.192 189.936ZM275 200V192.368H273.576V200H275ZM283.578 200V194.448C283.578 193.072 282.81 192.208 281.37 192.208C280.282 192.208 279.386 192.816 278.666 193.472L278.49 192.368H277.354V200H278.778V194.72C279.466 193.984 280.234 193.488 280.986 193.488C281.818 193.488 282.154 194.016 282.154 194.8V200H283.578ZM287.6 199.408C287.904 199.472 288.128 199.52 288.544 199.6L289.456 199.76C290.544 199.952 290.896 200.272 290.896 200.736C290.896 201.376 290.064 201.888 288.576 201.888C287.088 201.888 286.304 201.44 286.304 200.832C286.304 200.304 286.704 199.856 287.6 199.408ZM289.968 194.848C289.968 195.76 289.36 196.48 288.384 196.48C287.44 196.48 286.832 195.792 286.832 194.912C286.832 193.984 287.424 193.248 288.384 193.248C289.328 193.248 289.968 193.936 289.968 194.848ZM290.352 192.848C289.824 192.432 289.152 192.208 288.384 192.208C286.832 192.208 285.456 193.216 285.456 194.864C285.456 195.904 286.032 196.72 286.88 197.136C286.368 197.44 286.08 197.808 286.08 198.176C286.08 198.464 286.224 198.736 286.56 198.976C285.488 199.552 284.944 200.16 284.944 200.944C284.944 202.288 286.528 202.912 288.512 202.912C290.496 202.912 292.24 202.16 292.24 200.56C292.24 199.376 291.232 198.864 289.616 198.576L289.072 198.48C287.728 198.24 287.456 198.176 287.456 197.904C287.456 197.76 287.616 197.584 287.84 197.44C288.032 197.472 288.224 197.488 288.416 197.488C289.968 197.488 291.344 196.496 291.344 194.864C291.344 194.432 291.248 194.032 291.04 193.68L292.496 193.536L292.288 192.256L290.352 192.848ZM299.182 197.872C299.182 196.416 298.334 195.872 296.446 195.392C295.246 195.088 294.862 194.8 294.862 194.288C294.862 193.744 295.31 193.408 296.174 193.408C296.974 193.408 297.822 193.68 298.494 194.064L298.718 192.72C297.998 192.4 297.15 192.208 296.206 192.208C294.542 192.208 293.518 193.104 293.518 194.32C293.518 195.68 294.238 196.224 296.03 196.672C297.406 197.008 297.838 197.264 297.838 197.968C297.838 198.608 297.262 198.976 296.286 198.976C295.246 198.976 294.318 198.592 293.598 198.096L293.39 199.44C294.046 199.808 295.166 200.16 296.174 200.16C298.142 200.16 299.182 199.264 299.182 197.872ZM309.776 197.872C309.776 196.416 308.928 195.872 307.04 195.392C305.84 195.088 305.456 194.8 305.456 194.288C305.456 193.744 305.904 193.408 306.768 193.408C307.568 193.408 308.416 193.68 309.088 194.064L309.312 192.72C308.592 192.4 307.744 192.208 306.8 192.208C305.136 192.208 304.112 193.104 304.112 194.32C304.112 195.68 304.832 196.224 306.624 196.672C308 197.008 308.432 197.264 308.432 197.968C308.432 198.608 307.856 198.976 306.88 198.976C305.84 198.976 304.912 198.592 304.192 198.096L303.984 199.44C304.64 199.808 305.76 200.16 306.768 200.16C308.736 200.16 309.776 199.264 309.776 197.872ZM317.702 196.032C317.702 193.92 316.678 192.208 314.454 192.208C312.534 192.208 311.094 193.712 311.094 196.16C311.094 198.96 312.646 200.16 314.63 200.16C315.894 200.16 316.87 199.776 317.686 199.136L317.478 197.856C316.646 198.512 315.846 198.944 314.742 198.944C313.414 198.944 312.566 198.112 312.518 196.336H317.702C317.702 196.24 317.702 196.112 317.702 196.032ZM316.262 195.264H312.582C312.806 193.952 313.558 193.328 314.438 193.328C315.542 193.328 316.086 194.032 316.262 195.264ZM323.783 193.568L323.559 192.208C322.311 192.272 321.431 193.056 320.887 193.92L320.647 192.368H319.511V200H320.935V195.488C321.447 194.48 322.519 193.632 323.783 193.568ZM331.309 192.368H329.853L327.933 198.288L325.949 192.256L324.525 192.48L327.229 200.032H328.589L331.309 192.368ZM338.734 196.032C338.734 193.92 337.71 192.208 335.486 192.208C333.566 192.208 332.126 193.712 332.126 196.16C332.126 198.96 333.678 200.16 335.661 200.16C336.926 200.16 337.902 199.776 338.718 199.136L338.51 197.856C337.678 198.512 336.878 198.944 335.774 198.944C334.446 198.944 333.598 198.112 333.549 196.336H338.734C338.734 196.24 338.734 196.112 338.734 196.032ZM337.294 195.264H333.614C333.838 193.952 334.59 193.328 335.47 193.328C336.574 193.328 337.118 194.032 337.294 195.264ZM344.814 193.568L344.59 192.208C343.342 192.272 342.462 193.056 341.918 193.92L341.678 192.368H340.542V200H341.966V195.488C342.478 194.48 343.55 193.632 344.814 193.568Z" fill="#ABABAB"/>
<rect x="62" y="213" width="346" height="28" rx="14" fill="#D9D9D9"/>
<path d="M62 227C62 219.268 68.268 213 76 213H372V241H76C68.268 241 62 234.732 62 227V227Z" fill="#10C84F"/>
<path d="M80.362 227.982C79.872 229.284 78.542 229.998 76.708 230.348L76.974 232.196C80.208 231.608 82.574 229.76 82.574 226.358C82.574 223.74 81.076 222.354 78.92 222.354C76.932 222.354 75.42 223.656 75.42 225.742C75.42 227.73 76.582 228.668 78.164 228.668C78.962 228.668 79.676 228.416 80.362 227.982ZM80.474 226.498C79.956 226.848 79.466 227.016 78.934 227.016C78.024 227.016 77.59 226.554 77.59 225.588C77.59 224.608 78.136 224.048 78.934 224.048C79.816 224.048 80.474 224.776 80.474 226.47V226.498ZM90.028 229.354C90.028 228.108 89.342 227.408 88.208 227.044C89.188 226.68 89.874 226.064 89.874 224.846C89.874 223.376 88.67 222.354 86.556 222.354C85.31 222.354 84.232 222.718 83.49 223.222L83.784 225.014C84.498 224.538 85.338 224.23 86.206 224.23C87.116 224.23 87.564 224.566 87.564 225.168C87.564 225.826 87.06 226.26 85.716 226.26H84.834L85.114 227.968H85.688C87.172 227.968 87.746 228.374 87.746 229.186C87.746 229.914 87.172 230.306 86.248 230.306C85.31 230.306 84.428 230.026 83.644 229.606L83.35 231.44C84.148 231.888 85.24 232.182 86.458 232.182C88.502 232.182 90.028 231.188 90.028 229.354ZM95.7669 225.196C95.7669 223.404 94.7309 222.424 93.4289 222.424C92.1269 222.424 91.0769 223.418 91.0769 225.21C91.0769 227.016 92.1129 227.996 93.4289 227.996C94.7309 227.996 95.7669 227.002 95.7669 225.196ZM100.457 222.718L99.1969 222.438L93.1489 231.818L94.3949 232.098L100.457 222.718ZM94.2969 225.196C94.2969 226.204 94.0169 226.806 93.4289 226.806C92.8409 226.806 92.5329 226.204 92.5329 225.21C92.5329 224.188 92.8269 223.6 93.4289 223.6C94.0029 223.6 94.2969 224.202 94.2969 225.196ZM102.529 229.326C102.529 227.52 101.493 226.54 100.177 226.54C98.8749 226.54 97.8389 227.534 97.8389 229.34C97.8389 231.132 98.8609 232.112 100.177 232.112C101.479 232.112 102.529 231.118 102.529 229.326ZM101.059 229.326C101.059 230.334 100.765 230.936 100.177 230.936C99.6029 230.936 99.2949 230.334 99.2949 229.34C99.2949 228.332 99.5749 227.73 100.177 227.73C100.751 227.73 101.059 228.332 101.059 229.326Z" fill="black"/>
<rect x="3" y="3" width="38" height="38" rx="19" fill="#10C84F"/>
<rect x="1.5" y="1.5" width="41" height="41" rx="20.5" stroke="#10C84F" stroke-opacity="0.5" stroke-width="3"/>
<path fill-rule="evenodd" clip-rule="evenodd" d="M17 16.0015C17 15.2297 17.8372 14.7488 18.5039 15.1377L28.5039 21.1377C29.1654 21.5236 29.1654 22.4794 28.5039 22.8653L18.5039 28.8653C17.8372 29.2542 17 28.7733 17 28.0015V16.0015ZM19 17.7425V26.2605L26.0154 22.0015L19 17.7425Z" fill="white"/>
<rect x="3" y="145" width="38" height="38" rx="19" fill="#10C84F"/>
<rect x="1.5" y="143.5" width="41" height="41" rx="20.5" stroke="#10C84F" stroke-opacity="0.5" stroke-width="3"/>
<path fill-rule="evenodd" clip-rule="evenodd" d="M17 158.002C17 157.23 17.8372 156.749 18.5039 157.138L28.5039 163.138C29.1654 163.524 29.1654 164.479 28.5039 164.865L18.5039 170.865C17.8372 171.254 17 170.773 17 170.002V158.002ZM19 159.743V168.26L26.0154 164.002L19 159.743Z" fill="white"/>
<rect x="21" y="51" width="2" height="84" rx="1" fill="white" fill-opacity="0.5"/>
</svg>
